<svg xmlns="http://www.w3.org/2000/svg" width="1100" height="500" viewBox="0 0 1100 500">
<style>
.title{font:700 30px Arial;fill:#E6EDF3}
.h{font:700 22px Arial;fill:#E6EDF3}
.t{font:16px Arial;fill:#C9D1D9}
.card{fill:#161B22;stroke:#30363D;stroke-width:2;rx:18}
.green{fill:#76B900}
.blue{fill:#58A6FF}
.line{stroke:#76B900;stroke-width:4;marker-end:url(#a)}
</style>
<defs><marker id="a" markerWidth="8" markerHeight="8" refX="7" refY="4" orient="auto"><polygon points="0,0 8,4 0,8" fill="#76B900"/></marker></defs>
<rect width="100%" height="100%" fill="#0D1117"/>
<text x="550" y="45" text-anchor="middle" class="title">Global Thread Index</text><text x="550" y="85" text-anchor="middle" class="t">global = blockIdx.x × blockDim.x + threadIdx.x</text><rect class="card" x="120" y="120" width="320" height="300"/><text x="280" y="155" text-anchor="middle" class="h">Block 0</text><text x="160" y="200" class="t">Thread 0</text><text x="320" y="200" class="t">0</text><text x="160" y="235" class="t">Thread 1</text><text x="320" y="235" class="t">1</text><text x="160" y="270" class="t">Thread 2</text><text x="320" y="270" class="t">2</text><text x="160" y="305" class="t">Thread 3</text><text x="320" y="305" class="t">3</text><text x="160" y="340" class="t">Thread 4</text><text x="320" y="340" class="t">4</text><text x="160" y="375" class="t">Thread 5</text><text x="320" y="375" class="t">5</text><rect class="card" x="620" y="120" width="320" height="300"/><text x="780" y="155" text-anchor="middle" class="h">Block 1</text><text x="660" y="200" class="t">Thread 0</text><text x="820" y="200" class="t">256</text><text x="660" y="235" class="t">Thread 1</text><text x="820" y="235" class="t">257</text><text x="660" y="270" class="t">Thread 2</text><text x="820" y="270" class="t">258</text><text x="660" y="305" class="t">Thread 3</text><text x="820" y="305" class="t">259</text><text x="660" y="340" class="t">Thread 4</text><text x="820" y="340" class="t">260</text><text x="660" y="375" class="t">Thread 5</text><text x="820" y="375" class="t">261</text></svg>