<?xml version="1.0" encoding="UTF-8"?>
<svg xmlns="http://www.w3.org/2000/svg" width="1600" height="900" viewBox="0 0 1600 900">
<defs>
<style>
.t{font:700 36px Arial;fill:#F0F6FC}
.s{font:20px Arial;fill:#8B949E}
.l{font:700 24px Arial;fill:#F0F6FC}
.sm{font:600 18px Arial;fill:#F0F6FC}
</style>
</defs>
<rect width="1600" height="900" fill="#0D1117"/>
<text x="60" y="60" class="t">CUDA Programming • Chapter 2</text>
<text x="60" y="95" class="s">Figure 3 — CUDA Grid and Block Hierarchy</text>

<rect x="70" y="140" width="1460" height="650" rx="18" fill="#161B22" stroke="#58A6FF" stroke-width="3"/>
<text x="640" y="185" class="l">CUDA Grid (gridDim)</text>
<rect x="240" y="250" width="240" height="240" rx="12" fill="#0D1117" stroke="#76B900" stroke-width="3"/><text x="300" y="235" class="sm">Block (0,0)</text><rect x="250" y="260" width="45" height="45" rx="6" fill="#161B22" stroke="#58A6FF" stroke-width="1.5"/><rect x="305" y="260" width="45" height="45" rx="6" fill="#161B22" stroke="#58A6FF" stroke-width="1.5"/><rect x="360" y="260" width="45" height="45" rx="6" fill="#161B22" stroke="#58A6FF" stroke-width="1.5"/><rect x="415" y="260" width="45" height="45" rx="6" fill="#161B22" stroke="#58A6FF" stroke-width="1.5"/><rect x="250" y="315" width="45" height="45" rx="6" fill="#161B22" stroke="#58A6FF" stroke-width="1.5"/><rect x="305" y="315" width="45" height="45" rx="6" fill="#161B22" stroke="#58A6FF" stroke-width="1.5"/><rect x="360" y="315" width="45" height="45" rx="6" fill="#161B22" stroke="#58A6FF" stroke-width="1.5"/><rect x="415" y="315" width="45" height="45" rx="6" fill="#161B22" stroke="#58A6FF" stroke-width="1.5"/><rect x="250" y="370" width="45" height="45" rx="6" fill="#161B22" stroke="#58A6FF" stroke-width="1.5"/><rect x="305" y="370" width="45" height="45" rx="6" fill="#161B22" stroke="#58A6FF" stroke-width="1.5"/><rect x="360" y="370" width="45" height="45" rx="6" fill="#161B22" stroke="#58A6FF" stroke-width="1.5"/><rect x="415" y="370" width="45" height="45" rx="6" fill="#161B22" stroke="#58A6FF" stroke-width="1.5"/><rect x="250" y="425" width="45" height="45" rx="6" fill="#161B22" stroke="#58A6FF" stroke-width="1.5"/><rect x="305" y="425" width="45" height="45" rx="6" fill="#161B22" stroke="#58A6FF" stroke-width="1.5"/><rect x="360" y="425" width="45" height="45" rx="6" fill="#161B22" stroke="#58A6FF" stroke-width="1.5"/><rect x="415" y="425" width="45" height="45" rx="6" fill="#161B22" stroke="#58A6FF" stroke-width="1.5"/><rect x="570" y="250" width="240" height="240" rx="12" fill="#0D1117" stroke="#76B900" stroke-width="3"/><text x="630" y="235" class="sm">Block (1,0)</text><rect x="580" y="260" width="45" height="45" rx="6" fill="#161B22" stroke="#58A6FF" stroke-width="1.5"/><rect x="635" y="260" width="45" height="45" rx="6" fill="#161B22" stroke="#58A6FF" stroke-width="1.5"/><rect x="690" y="260" width="45" height="45" rx="6" fill="#161B22" stroke="#58A6FF" stroke-width="1.5"/><rect x="745" y="260" width="45" height="45" rx="6" fill="#161B22" stroke="#58A6FF" stroke-width="1.5"/><rect x="580" y="315" width="45" height="45" rx="6" fill="#161B22" stroke="#58A6FF" stroke-width="1.5"/><rect x="635" y="315" width="45" height="45" rx="6" fill="#161B22" stroke="#58A6FF" stroke-width="1.5"/><rect x="690" y="315" width="45" height="45" rx="6" fill="#161B22" stroke="#58A6FF" stroke-width="1.5"/><rect x="745" y="315" width="45" height="45" rx="6" fill="#161B22" stroke="#58A6FF" stroke-width="1.5"/><rect x="580" y="370" width="45" height="45" rx="6" fill="#161B22" stroke="#58A6FF" stroke-width="1.5"/><rect x="635" y="370" width="45" height="45" rx="6" fill="#76B900" stroke="#58A6FF" stroke-width="1.5"/><rect x="690" y="370" width="45" height="45" rx="6" fill="#161B22" stroke="#58A6FF" stroke-width="1.5"/><rect x="745" y="370" width="45" height="45" rx="6" fill="#161B22" stroke="#58A6FF" stroke-width="1.5"/><rect x="580" y="425" width="45" height="45" rx="6" fill="#161B22" stroke="#58A6FF" stroke-width="1.5"/><rect x="635" y="425" width="45" height="45" rx="6" fill="#161B22" stroke="#58A6FF" stroke-width="1.5"/><rect x="690" y="425" width="45" height="45" rx="6" fill="#161B22" stroke="#58A6FF" stroke-width="1.5"/><rect x="745" y="425" width="45" height="45" rx="6" fill="#161B22" stroke="#58A6FF" stroke-width="1.5"/><rect x="240" y="580" width="240" height="240" rx="12" fill="#0D1117" stroke="#76B900" stroke-width="3"/><text x="300" y="565" class="sm">Block (0,1)</text><rect x="250" y="590" width="45" height="45" rx="6" fill="#161B22" stroke="#58A6FF" stroke-width="1.5"/><rect x="305" y="590" width="45" height="45" rx="6" fill="#161B22" stroke="#58A6FF" stroke-width="1.5"/><rect x="360" y="590" width="45" height="45" rx="6" fill="#161B22" stroke="#58A6FF" stroke-width="1.5"/><rect x="415" y="590" width="45" height="45" rx="6" fill="#161B22" stroke="#58A6FF" stroke-width="1.5"/><rect x="250" y="645" width="45" height="45" rx="6" fill="#161B22" stroke="#58A6FF" stroke-width="1.5"/><rect x="305" y="645" width="45" height="45" rx="6" fill="#161B22" stroke="#58A6FF" stroke-width="1.5"/><rect x="360" y="645" width="45" height="45" rx="6" fill="#161B22" stroke="#58A6FF" stroke-width="1.5"/><rect x="415" y="645" width="45" height="45" rx="6" fill="#161B22" stroke="#58A6FF" stroke-width="1.5"/><rect x="250" y="700" width="45" height="45" rx="6" fill="#161B22" stroke="#58A6FF" stroke-width="1.5"/><rect x="305" y="700" width="45" height="45" rx="6" fill="#161B22" stroke="#58A6FF" stroke-width="1.5"/><rect x="360" y="700" width="45" height="45" rx="6" fill="#161B22" stroke="#58A6FF" stroke-width="1.5"/><rect x="415" y="700" width="45" height="45" rx="6" fill="#161B22" stroke="#58A6FF" stroke-width="1.5"/><rect x="250" y="755" width="45" height="45" rx="6" fill="#161B22" stroke="#58A6FF" stroke-width="1.5"/><rect x="305" y="755" width="45" height="45" rx="6" fill="#161B22" stroke="#58A6FF" stroke-width="1.5"/><rect x="360" y="755" width="45" height="45" rx="6" fill="#161B22" stroke="#58A6FF" stroke-width="1.5"/><rect x="415" y="755" width="45" height="45" rx="6" fill="#161B22" stroke="#58A6FF" stroke-width="1.5"/><rect x="570" y="580" width="240" height="240" rx="12" fill="#0D1117" stroke="#76B900" stroke-width="3"/><text x="630" y="565" class="sm">Block (1,1)</text><rect x="580" y="590" width="45" height="45" rx="6" fill="#161B22" stroke="#58A6FF" stroke-width="1.5"/><rect x="635" y="590" width="45" height="45" rx="6" fill="#161B22" stroke="#58A6FF" stroke-width="1.5"/><rect x="690" y="590" width="45" height="45" rx="6" fill="#161B22" stroke="#58A6FF" stroke-width="1.5"/><rect x="745" y="590" width="45" height="45" rx="6" fill="#161B22" stroke="#58A6FF" stroke-width="1.5"/><rect x="580" y="645" width="45" height="45" rx="6" fill="#161B22" stroke="#58A6FF" stroke-width="1.5"/><rect x="635" y="645" width="45" height="45" rx="6" fill="#161B22" stroke="#58A6FF" stroke-width="1.5"/><rect x="690" y="645" width="45" height="45" rx="6" fill="#161B22" stroke="#58A6FF" stroke-width="1.5"/><rect x="745" y="645" width="45" height="45" rx="6" fill="#161B22" stroke="#58A6FF" stroke-width="1.5"/><rect x="580" y="700" width="45" height="45" rx="6" fill="#161B22" stroke="#58A6FF" stroke-width="1.5"/><rect x="635" y="700" width="45" height="45" rx="6" fill="#161B22" stroke="#58A6FF" stroke-width="1.5"/><rect x="690" y="700" width="45" height="45" rx="6" fill="#161B22" stroke="#58A6FF" stroke-width="1.5"/><rect x="745" y="700" width="45" height="45" rx="6" fill="#161B22" stroke="#58A6FF" stroke-width="1.5"/><rect x="580" y="755" width="45" height="45" rx="6" fill="#161B22" stroke="#58A6FF" stroke-width="1.5"/><rect x="635" y="755" width="45" height="45" rx="6" fill="#161B22" stroke="#58A6FF" stroke-width="1.5"/><rect x="690" y="755" width="45" height="45" rx="6" fill="#161B22" stroke="#58A6FF" stroke-width="1.5"/><rect x="745" y="755" width="45" height="45" rx="6" fill="#161B22" stroke="#58A6FF" stroke-width="1.5"/>
<rect x="1180" y="250" width="280" height="300" rx="14" fill="#0D1117" stroke="#58A6FF" stroke-width="2"/>
<text x="1260" y="290" class="l">Hierarchy</text>

<rect x="1210" y="330" width="28" height="28" rx="4" fill="#0D1117" stroke="#76B900" stroke-width="2"/>
<text x="1255" y="350" class="sm">Grid contains Blocks</text>

<rect x="1210" y="390" width="28" height="28" rx="4" fill="#161B22" stroke="#58A6FF" stroke-width="2"/>
<text x="1255" y="410" class="sm">Block contains Threads</text>

<rect x="1210" y="450" width="28" height="28" rx="4" fill="#76B900"/>
<text x="1255" y="470" class="sm">One executing Thread</text>

<rect x="250" y="730" width="1100" height="70" rx="10" fill="#161B22" stroke="#58A6FF" stroke-width="2"/>
<text x="800" y="773" text-anchor="middle" class="sm">
A CUDA Grid is made of Blocks, and every Block is made of Threads that execute the kernel in parallel.
</text>

<line x1="70" y1="835" x2="1530" y2="835" stroke="#30363D"/>
<text x="800" y="872" text-anchor="middle" class="s">Grid → Blocks → Threads</text>
</svg>
