<?xml version="1.0" encoding="UTF-8"?><svg xmlns="http://www.w3.org/2000/svg" width="1600" height="900" viewBox="0 0 1600 900">
<defs>
<style>
.title{font:700 38px Arial,sans-serif;fill:#F0F6FC}
.subtitle{font:500 22px Arial,sans-serif;fill:#8B949E}
.label{font:600 24px Arial,sans-serif;fill:#F0F6FC}
.celltxt{font:600 22px Arial,sans-serif;fill:#F0F6FC}
.foot{font:500 22px Arial,sans-serif;fill:#8B949E}
</style>
<marker id="arrow" markerWidth="10" markerHeight="10" refX="8" refY="3" orient="auto">
<path d="M0,0 L8,3 L0,6 Z" fill="#76B900"/>
</marker>
</defs>
<rect width="1600" height="900" fill="#0D1117"/>
<text x="70" y="70" class="title">CUDA Programming • Chapter 2</text>
<text x="70" y="108" class="subtitle">Figure 1 — Matrix Storage in Memory</text>
<rect x="70" y="160" rx="18" ry="18" width="520" height="610" fill="#161B22" stroke="#76B900" stroke-width="3"/>
<text x="240" y="205" class="label">2D Matrix</text>
<rect x="150" y="250" width="75" height="75" rx="8" fill="#0D1117" stroke="#76B900" stroke-width="2"/><text x="187.5" y="296" text-anchor="middle" class="celltxt">1</text><rect x="225" y="250" width="75" height="75" rx="8" fill="#0D1117" stroke="#76B900" stroke-width="2"/><text x="262.5" y="296" text-anchor="middle" class="celltxt">2</text><rect x="300" y="250" width="75" height="75" rx="8" fill="#0D1117" stroke="#76B900" stroke-width="2"/><text x="337.5" y="296" text-anchor="middle" class="celltxt">3</text><rect x="375" y="250" width="75" height="75" rx="8" fill="#0D1117" stroke="#76B900" stroke-width="2"/><text x="412.5" y="296" text-anchor="middle" class="celltxt">4</text><rect x="150" y="325" width="75" height="75" rx="8" fill="#0D1117" stroke="#76B900" stroke-width="2"/><text x="187.5" y="371" text-anchor="middle" class="celltxt">5</text><rect x="225" y="325" width="75" height="75" rx="8" fill="#0D1117" stroke="#76B900" stroke-width="2"/><text x="262.5" y="371" text-anchor="middle" class="celltxt">6</text><rect x="300" y="325" width="75" height="75" rx="8" fill="#0D1117" stroke="#76B900" stroke-width="2"/><text x="337.5" y="371" text-anchor="middle" class="celltxt">7</text><rect x="375" y="325" width="75" height="75" rx="8" fill="#0D1117" stroke="#76B900" stroke-width="2"/><text x="412.5" y="371" text-anchor="middle" class="celltxt">8</text><rect x="150" y="400" width="75" height="75" rx="8" fill="#0D1117" stroke="#76B900" stroke-width="2"/><text x="187.5" y="446" text-anchor="middle" class="celltxt">9</text><rect x="225" y="400" width="75" height="75" rx="8" fill="#0D1117" stroke="#76B900" stroke-width="2"/><text x="262.5" y="446" text-anchor="middle" class="celltxt">10</text><rect x="300" y="400" width="75" height="75" rx="8" fill="#0D1117" stroke="#76B900" stroke-width="2"/><text x="337.5" y="446" text-anchor="middle" class="celltxt">11</text><rect x="375" y="400" width="75" height="75" rx="8" fill="#0D1117" stroke="#76B900" stroke-width="2"/><text x="412.5" y="446" text-anchor="middle" class="celltxt">12</text><rect x="150" y="475" width="75" height="75" rx="8" fill="#0D1117" stroke="#76B900" stroke-width="2"/><text x="187.5" y="521" text-anchor="middle" class="celltxt">13</text><rect x="225" y="475" width="75" height="75" rx="8" fill="#0D1117" stroke="#76B900" stroke-width="2"/><text x="262.5" y="521" text-anchor="middle" class="celltxt">14</text><rect x="300" y="475" width="75" height="75" rx="8" fill="#0D1117" stroke="#76B900" stroke-width="2"/><text x="337.5" y="521" text-anchor="middle" class="celltxt">15</text><rect x="375" y="475" width="75" height="75" rx="8" fill="#0D1117" stroke="#76B900" stroke-width="2"/><text x="412.5" y="521" text-anchor="middle" class="celltxt">16</text>
<text x="310" y="615" class="subtitle" text-anchor="middle">Rows ↓</text>
<text x="100" y="430" class="subtitle" transform="rotate(-90 100 430)">Columns →</text>
<line x1="640" y1="460" x2="920" y2="460" stroke="#76B900" stroke-width="6" marker-end="url(#arrow)"/>
<text x="680" y="430" class="label">Flatten into</text>
<text x="695" y="495" class="label">Linear Memory</text>
<rect x="980" y="160" rx="18" ry="18" width="550" height="610" fill="#161B22" stroke="#58A6FF" stroke-width="3"/>
<text x="1150" y="205" class="label">Linear Memory</text>
<rect x="1035" y="360" width="28" height="60" rx="5" fill="#0D1117" stroke="#58A6FF" stroke-width="2"/><text x="1049.0" y="398" text-anchor="middle" style="font:600 18px Arial;fill:#F0F6FC">1</text><text x="1049.0" y="450" text-anchor="middle" style="font:500 13px Arial;fill:#8B949E">0</text><rect x="1069" y="360" width="28" height="60" rx="5" fill="#0D1117" stroke="#58A6FF" stroke-width="2"/><text x="1083.0" y="398" text-anchor="middle" style="font:600 18px Arial;fill:#F0F6FC">2</text><text x="1083.0" y="450" text-anchor="middle" style="font:500 13px Arial;fill:#8B949E">1</text><rect x="1103" y="360" width="28" height="60" rx="5" fill="#0D1117" stroke="#58A6FF" stroke-width="2"/><text x="1117.0" y="398" text-anchor="middle" style="font:600 18px Arial;fill:#F0F6FC">3</text><text x="1117.0" y="450" text-anchor="middle" style="font:500 13px Arial;fill:#8B949E">2</text><rect x="1137" y="360" width="28" height="60" rx="5" fill="#0D1117" stroke="#58A6FF" stroke-width="2"/><text x="1151.0" y="398" text-anchor="middle" style="font:600 18px Arial;fill:#F0F6FC">4</text><text x="1151.0" y="450" text-anchor="middle" style="font:500 13px Arial;fill:#8B949E">3</text><rect x="1171" y="360" width="28" height="60" rx="5" fill="#0D1117" stroke="#58A6FF" stroke-width="2"/><text x="1185.0" y="398" text-anchor="middle" style="font:600 18px Arial;fill:#F0F6FC">5</text><text x="1185.0" y="450" text-anchor="middle" style="font:500 13px Arial;fill:#8B949E">4</text><rect x="1205" y="360" width="28" height="60" rx="5" fill="#0D1117" stroke="#58A6FF" stroke-width="2"/><text x="1219.0" y="398" text-anchor="middle" style="font:600 18px Arial;fill:#F0F6FC">6</text><text x="1219.0" y="450" text-anchor="middle" style="font:500 13px Arial;fill:#8B949E">5</text><rect x="1239" y="360" width="28" height="60" rx="5" fill="#0D1117" stroke="#58A6FF" stroke-width="2"/><text x="1253.0" y="398" text-anchor="middle" style="font:600 18px Arial;fill:#F0F6FC">7</text><text x="1253.0" y="450" text-anchor="middle" style="font:500 13px Arial;fill:#8B949E">6</text><rect x="1273" y="360" width="28" height="60" rx="5" fill="#0D1117" stroke="#58A6FF" stroke-width="2"/><text x="1287.0" y="398" text-anchor="middle" style="font:600 18px Arial;fill:#F0F6FC">8</text><text x="1287.0" y="450" text-anchor="middle" style="font:500 13px Arial;fill:#8B949E">7</text><rect x="1307" y="360" width="28" height="60" rx="5" fill="#0D1117" stroke="#58A6FF" stroke-width="2"/><text x="1321.0" y="398" text-anchor="middle" style="font:600 18px Arial;fill:#F0F6FC">9</text><text x="1321.0" y="450" text-anchor="middle" style="font:500 13px Arial;fill:#8B949E">8</text><rect x="1341" y="360" width="28" height="60" rx="5" fill="#0D1117" stroke="#58A6FF" stroke-width="2"/><text x="1355.0" y="398" text-anchor="middle" style="font:600 18px Arial;fill:#F0F6FC">10</text><text x="1355.0" y="450" text-anchor="middle" style="font:500 13px Arial;fill:#8B949E">9</text><rect x="1375" y="360" width="28" height="60" rx="5" fill="#0D1117" stroke="#58A6FF" stroke-width="2"/><text x="1389.0" y="398" text-anchor="middle" style="font:600 18px Arial;fill:#F0F6FC">11</text><text x="1389.0" y="450" text-anchor="middle" style="font:500 13px Arial;fill:#8B949E">10</text><rect x="1409" y="360" width="28" height="60" rx="5" fill="#0D1117" stroke="#58A6FF" stroke-width="2"/><text x="1423.0" y="398" text-anchor="middle" style="font:600 18px Arial;fill:#F0F6FC">12</text><text x="1423.0" y="450" text-anchor="middle" style="font:500 13px Arial;fill:#8B949E">11</text><rect x="1443" y="360" width="28" height="60" rx="5" fill="#0D1117" stroke="#58A6FF" stroke-width="2"/><text x="1457.0" y="398" text-anchor="middle" style="font:600 18px Arial;fill:#F0F6FC">13</text><text x="1457.0" y="450" text-anchor="middle" style="font:500 13px Arial;fill:#8B949E">12</text><rect x="1477" y="360" width="28" height="60" rx="5" fill="#0D1117" stroke="#58A6FF" stroke-width="2"/><text x="1491.0" y="398" text-anchor="middle" style="font:600 18px Arial;fill:#F0F6FC">14</text><text x="1491.0" y="450" text-anchor="middle" style="font:500 13px Arial;fill:#8B949E">13</text><rect x="1511" y="360" width="28" height="60" rx="5" fill="#0D1117" stroke="#58A6FF" stroke-width="2"/><text x="1525.0" y="398" text-anchor="middle" style="font:600 18px Arial;fill:#F0F6FC">15</text><text x="1525.0" y="450" text-anchor="middle" style="font:500 13px Arial;fill:#8B949E">14</text><rect x="1545" y="360" width="28" height="60" rx="5" fill="#0D1117" stroke="#58A6FF" stroke-width="2"/><text x="1559.0" y="398" text-anchor="middle" style="font:600 18px Arial;fill:#F0F6FC">16</text><text x="1559.0" y="450" text-anchor="middle" style="font:500 13px Arial;fill:#8B949E">15</text>
<text x="1255" y="500" class="subtitle" text-anchor="middle">Memory Index</text>
<line x1="70" y1="820" x2="1530" y2="820" stroke="#30363D"/>
<text x="800" y="860" text-anchor="middle" class="foot">Matrices appear two-dimensional, but CUDA stores them as one contiguous block of linear memory.</text>
</svg>
