<svg xmlns="http://www.w3.org/2000/svg" width="1200" height="700" viewBox="0 0 1200 700">
<style>
.title{font:700 30px Arial;fill:#E6EDF3}
.h{font:700 22px Arial;fill:#E6EDF3}
.t{font:16px Arial;fill:#C9D1D9}
.card{fill:#161B22;stroke:#30363D;stroke-width:2;rx:18}
.green{fill:#76B900}
.blue{fill:#58A6FF}
.line{stroke:#76B900;stroke-width:4;marker-end:url(#a)}
</style>
<defs><marker id="a" markerWidth="8" markerHeight="8" refX="7" refY="4" orient="auto"><polygon points="0,0 8,4 0,8" fill="#76B900"/></marker></defs>
<rect width="100%" height="100%" fill="#0D1117"/>
<text x="600" y="50" text-anchor="middle" class="title">CPU vs GPU Architecture</text><rect class="card" x="70" y="110" width="430" height="500"/><rect class="card" x="700" y="110" width="430" height="500"/><text x="285" y="155" text-anchor="middle" class="h">CPU</text><text x="915" y="155" text-anchor="middle" class="h">GPU</text><circle cx="180" cy="260" r="35" class="green"/><circle cx="300" cy="260" r="35" class="green"/><circle cx="180" cy="380" r="35" class="green"/><circle cx="300" cy="380" r="35" class="green"/><text x="285" y="500" text-anchor="middle" class="t">4 Powerful Cores • Sequential Execution</text><circle cx="760" cy="220" r="7" class="blue"/><circle cx="785" cy="220" r="7" class="blue"/><circle cx="810" cy="220" r="7" class="blue"/><circle cx="835" cy="220" r="7" class="blue"/><circle cx="860" cy="220" r="7" class="blue"/><circle cx="885" cy="220" r="7" class="blue"/><circle cx="910" cy="220" r="7" class="blue"/><circle cx="935" cy="220" r="7" class="blue"/><circle cx="960" cy="220" r="7" class="blue"/><circle cx="985" cy="220" r="7" class="blue"/><circle cx="1010" cy="220" r="7" class="blue"/><circle cx="1035" cy="220" r="7" class="blue"/><circle cx="760" cy="245" r="7" class="blue"/><circle cx="785" cy="245" r="7" class="blue"/><circle cx="810" cy="245" r="7" class="blue"/><circle cx="835" cy="245" r="7" class="blue"/><circle cx="860" cy="245" r="7" class="blue"/><circle cx="885" cy="245" r="7" class="blue"/><circle cx="910" cy="245" r="7" class="blue"/><circle cx="935" cy="245" r="7" class="blue"/><circle cx="960" cy="245" r="7" class="blue"/><circle cx="985" cy="245" r="7" class="blue"/><circle cx="1010" cy="245" r="7" class="blue"/><circle cx="1035" cy="245" r="7" class="blue"/><circle cx="760" cy="270" r="7" class="blue"/><circle cx="785" cy="270" r="7" class="blue"/><circle cx="810" cy="270" r="7" class="blue"/><circle cx="835" cy="270" r="7" class="blue"/><circle cx="860" cy="270" r="7" class="blue"/><circle cx="885" cy="270" r="7" class="blue"/><circle cx="910" cy="270" r="7" class="blue"/><circle cx="935" cy="270" r="7" class="blue"/><circle cx="960" cy="270" r="7" class="blue"/><circle cx="985" cy="270" r="7" class="blue"/><circle cx="1010" cy="270" r="7" class="blue"/><circle cx="1035" cy="270" r="7" class="blue"/><circle cx="760" cy="295" r="7" class="blue"/><circle cx="785" cy="295" r="7" class="blue"/><circle cx="810" cy="295" r="7" class="blue"/><circle cx="835" cy="295" r="7" class="blue"/><circle cx="860" cy="295" r="7" class="blue"/><circle cx="885" cy="295" r="7" class="blue"/><circle cx="910" cy="295" r="7" class="blue"/><circle cx="935" cy="295" r="7" class="blue"/><circle cx="960" cy="295" r="7" class="blue"/><circle cx="985" cy="295" r="7" class="blue"/><circle cx="1010" cy="295" r="7" class="blue"/><circle cx="1035" cy="295" r="7" class="blue"/><circle cx="760" cy="320" r="7" class="blue"/><circle cx="785" cy="320" r="7" class="blue"/><circle cx="810" cy="320" r="7" class="blue"/><circle cx="835" cy="320" r="7" class="blue"/><circle cx="860" cy="320" r="7" class="blue"/><circle cx="885" cy="320" r="7" class="blue"/><circle cx="910" cy="320" r="7" class="blue"/><circle cx="935" cy="320" r="7" class="blue"/><circle cx="960" cy="320" r="7" class="blue"/><circle cx="985" cy="320" r="7" class="blue"/><circle cx="1010" cy="320" r="7" class="blue"/><circle cx="1035" cy="320" r="7" class="blue"/><circle cx="760" cy="345" r="7" class="blue"/><circle cx="785" cy="345" r="7" class="blue"/><circle cx="810" cy="345" r="7" class="blue"/><circle cx="835" cy="345" r="7" class="blue"/><circle cx="860" cy="345" r="7" class="blue"/><circle cx="885" cy="345" r="7" class="blue"/><circle cx="910" cy="345" r="7" class="blue"/><circle cx="935" cy="345" r="7" class="blue"/><circle cx="960" cy="345" r="7" class="blue"/><circle cx="985" cy="345" r="7" class="blue"/><circle cx="1010" cy="345" r="7" class="blue"/><circle cx="1035" cy="345" r="7" class="blue"/><circle cx="760" cy="370" r="7" class="blue"/><circle cx="785" cy="370" r="7" class="blue"/><circle cx="810" cy="370" r="7" class="blue"/><circle cx="835" cy="370" r="7" class="blue"/><circle cx="860" cy="370" r="7" class="blue"/><circle cx="885" cy="370" r="7" class="blue"/><circle cx="910" cy="370" r="7" class="blue"/><circle cx="935" cy="370" r="7" class="blue"/><circle cx="960" cy="370" r="7" class="blue"/><circle cx="985" cy="370" r="7" class="blue"/><circle cx="1010" cy="370" r="7" class="blue"/><circle cx="1035" cy="370" r="7" class="blue"/><circle cx="760" cy="395" r="7" class="blue"/><circle cx="785" cy="395" r="7" class="blue"/><circle cx="810" cy="395" r="7" class="blue"/><circle cx="835" cy="395" r="7" class="blue"/><circle cx="860" cy="395" r="7" class="blue"/><circle cx="885" cy="395" r="7" class="blue"/><circle cx="910" cy="395" r="7" class="blue"/><circle cx="935" cy="395" r="7" class="blue"/><circle cx="960" cy="395" r="7" class="blue"/><circle cx="985" cy="395" r="7" class="blue"/><circle cx="1010" cy="395" r="7" class="blue"/><circle cx="1035" cy="395" r="7" class="blue"/><circle cx="760" cy="420" r="7" class="blue"/><circle cx="785" cy="420" r="7" class="blue"/><circle cx="810" cy="420" r="7" class="blue"/><circle cx="835" cy="420" r="7" class="blue"/><circle cx="860" cy="420" r="7" class="blue"/><circle cx="885" cy="420" r="7" class="blue"/><circle cx="910" cy="420" r="7" class="blue"/><circle cx="935" cy="420" r="7" class="blue"/><circle cx="960" cy="420" r="7" class="blue"/><circle cx="985" cy="420" r="7" class="blue"/><circle cx="1010" cy="420" r="7" class="blue"/><circle cx="1035" cy="420" r="7" class="blue"/><circle cx="760" cy="445" r="7" class="blue"/><circle cx="785" cy="445" r="7" class="blue"/><circle cx="810" cy="445" r="7" class="blue"/><circle cx="835" cy="445" r="7" class="blue"/><circle cx="860" cy="445" r="7" class="blue"/><circle cx="885" cy="445" r="7" class="blue"/><circle cx="910" cy="445" r="7" class="blue"/><circle cx="935" cy="445" r="7" class="blue"/><circle cx="960" cy="445" r="7" class="blue"/><circle cx="985" cy="445" r="7" class="blue"/><circle cx="1010" cy="445" r="7" class="blue"/><circle cx="1035" cy="445" r="7" class="blue"/><circle cx="760" cy="470" r="7" class="blue"/><circle cx="785" cy="470" r="7" class="blue"/><circle cx="810" cy="470" r="7" class="blue"/><circle cx="835" cy="470" r="7" class="blue"/><circle cx="860" cy="470" r="7" class="blue"/><circle cx="885" cy="470" r="7" class="blue"/><circle cx="910" cy="470" r="7" class="blue"/><circle cx="935" cy="470" r="7" class="blue"/><circle cx="960" cy="470" r="7" class="blue"/><circle cx="985" cy="470" r="7" class="blue"/><circle cx="1010" cy="470" r="7" class="blue"/><circle cx="1035" cy="470" r="7" class="blue"/><circle cx="760" cy="495" r="7" class="blue"/><circle cx="785" cy="495" r="7" class="blue"/><circle cx="810" cy="495" r="7" class="blue"/><circle cx="835" cy="495" r="7" class="blue"/><circle cx="860" cy="495" r="7" class="blue"/><circle cx="885" cy="495" r="7" class="blue"/><circle cx="910" cy="495" r="7" class="blue"/><circle cx="935" cy="495" r="7" class="blue"/><circle cx="960" cy="495" r="7" class="blue"/><circle cx="985" cy="495" r="7" class="blue"/><circle cx="1010" cy="495" r="7" class="blue"/><circle cx="1035" cy="495" r="7" class="blue"/><text x="915" y="560" text-anchor="middle" class="t">Thousands of Lightweight CUDA Cores • Parallel Execution</text></svg>