<svg xmlns="http://www.w3.org/2000/svg" width="1000" height="700" viewBox="0 0 1000 700">
<style>
.title{font:700 30px Arial;fill:#E6EDF3}
.h{font:700 22px Arial;fill:#E6EDF3}
.t{font:16px Arial;fill:#C9D1D9}
.card{fill:#161B22;stroke:#30363D;stroke-width:2;rx:18}
.green{fill:#76B900}
.blue{fill:#58A6FF}
.line{stroke:#76B900;stroke-width:4;marker-end:url(#a)}
</style>
<defs><marker id="a" markerWidth="8" markerHeight="8" refX="7" refY="4" orient="auto"><polygon points="0,0 8,4 0,8" fill="#76B900"/></marker></defs>
<rect width="100%" height="100%" fill="#0D1117"/>
<text x="500" y="45" text-anchor="middle" class="title">CUDA Execution Hierarchy</text><rect class="card" x="120" y="80" width="760" height="560"/><text x="500" y="115" text-anchor="middle" class="h">Grid</text><rect class="card" x="180" y="170" width="160" height="360"/><text x="260" y="200" text-anchor="middle" class="h">Block 0</text><circle cx="215" cy="245" r="10" class="green"/><circle cx="245" cy="245" r="10" class="green"/><circle cx="275" cy="245" r="10" class="green"/><circle cx="305" cy="245" r="10" class="green"/><circle cx="215" cy="290" r="10" class="green"/><circle cx="245" cy="290" r="10" class="green"/><circle cx="275" cy="290" r="10" class="green"/><circle cx="305" cy="290" r="10" class="green"/><circle cx="215" cy="335" r="10" class="green"/><circle cx="245" cy="335" r="10" class="green"/><circle cx="275" cy="335" r="10" class="green"/><circle cx="305" cy="335" r="10" class="green"/><circle cx="215" cy="380" r="10" class="green"/><circle cx="245" cy="380" r="10" class="green"/><circle cx="275" cy="380" r="10" class="green"/><circle cx="305" cy="380" r="10" class="green"/><rect class="card" x="400" y="170" width="160" height="360"/><text x="480" y="200" text-anchor="middle" class="h">Block 1</text><circle cx="435" cy="245" r="10" class="green"/><circle cx="465" cy="245" r="10" class="green"/><circle cx="495" cy="245" r="10" class="green"/><circle cx="525" cy="245" r="10" class="green"/><circle cx="435" cy="290" r="10" class="green"/><circle cx="465" cy="290" r="10" class="green"/><circle cx="495" cy="290" r="10" class="green"/><circle cx="525" cy="290" r="10" class="green"/><circle cx="435" cy="335" r="10" class="green"/><circle cx="465" cy="335" r="10" class="green"/><circle cx="495" cy="335" r="10" class="green"/><circle cx="525" cy="335" r="10" class="green"/><circle cx="435" cy="380" r="10" class="green"/><circle cx="465" cy="380" r="10" class="green"/><circle cx="495" cy="380" r="10" class="green"/><circle cx="525" cy="380" r="10" class="green"/><rect class="card" x="620" y="170" width="160" height="360"/><text x="700" y="200" text-anchor="middle" class="h">Block 2</text><circle cx="655" cy="245" r="10" class="green"/><circle cx="685" cy="245" r="10" class="green"/><circle cx="715" cy="245" r="10" class="green"/><circle cx="745" cy="245" r="10" class="green"/><circle cx="655" cy="290" r="10" class="green"/><circle cx="685" cy="290" r="10" class="green"/><circle cx="715" cy="290" r="10" class="green"/><circle cx="745" cy="290" r="10" class="green"/><circle cx="655" cy="335" r="10" class="green"/><circle cx="685" cy="335" r="10" class="green"/><circle cx="715" cy="335" r="10" class="green"/><circle cx="745" cy="335" r="10" class="green"/><circle cx="655" cy="380" r="10" class="green"/><circle cx="685" cy="380" r="10" class="green"/><circle cx="715" cy="380" r="10" class="green"/><circle cx="745" cy="380" r="10" class="green"/></svg>